<svg xmlns="http://www.w3.org/2000/svg" width="62.24" height="60.999" viewBox="0 0 62.24 60.999">
  <g id="グループ_47" data-name="グループ 47" transform="translate(-50.26 -100)">
    <path id="中マド_2" data-name="中マド 2" d="M-6386-41a29.81,29.81,0,0,1-11.677-2.357,29.9,29.9,0,0,1-9.536-6.429,29.9,29.9,0,0,1-6.43-9.536A29.816,29.816,0,0,1-6416-71a29.816,29.816,0,0,1,2.357-11.677,29.9,29.9,0,0,1,6.43-9.536,29.9,29.9,0,0,1,9.536-6.429A29.81,29.81,0,0,1-6386-101a29.813,29.813,0,0,1,11.678,2.357,29.892,29.892,0,0,1,9.536,6.429,29.9,29.9,0,0,1,6.429,9.536A29.807,29.807,0,0,1-6356-71a29.807,29.807,0,0,1-2.357,11.678,29.9,29.9,0,0,1-6.429,9.536,29.892,29.892,0,0,1-9.536,6.429A29.813,29.813,0,0,1-6386-41Zm.5-47A17.519,17.519,0,0,0-6403-70.5,17.519,17.519,0,0,0-6385.5-53,17.519,17.519,0,0,0-6368-70.5,17.519,17.519,0,0,0-6385.5-88Z" transform="translate(6467 202)" fill="#aec7bb"/>
    <text id="T" transform="translate(62.26 133.461) rotate(-90)" fill="#2f4f4f" font-size="12" font-family="Lobster-Regular, Lobster"><tspan x="0" y="0">T</tspan></text>
    <text id="h" transform="matrix(0.259, -0.966, 0.966, 0.259, 62.591, 128.041)" fill="#2f4f4f" font-size="12" font-family="Lobster-Regular, Lobster"><tspan x="0" y="0">h</tspan></text>
    <text id="e" transform="translate(64.289 122.464) rotate(-60)" fill="#2f4f4f" font-size="12" font-family="Lobster-Regular, Lobster"><tspan x="0" y="0">e</tspan></text>
    <text id="T-2" data-name="T" transform="translate(67.854 118.625) rotate(-45)" fill="#2f4f4f" font-size="12" font-family="Lobster-Regular, Lobster"><tspan x="0" y="0">T</tspan></text>
    <text id="r" transform="translate(72 114.923) rotate(-30)" fill="#2f4f4f" font-size="12" font-family="Lobster-Regular, Lobster"><tspan x="0" y="0">r</tspan></text>
    <text id="u" transform="matrix(0.966, -0.259, 0.259, 0.966, 74.606, 113.144)" fill="#2f4f4f" font-size="12" font-family="Lobster-Regular, Lobster"><tspan x="0" y="0">u</tspan></text>
    <text id="n" transform="translate(80 112)" fill="#2f4f4f" font-size="12" font-family="Lobster-Regular, Lobster"><tspan x="0" y="0">n</tspan></text>
    <text id="k" transform="matrix(0.966, 0.259, -0.259, 0.966, 84.94, 112.07)" fill="#2f4f4f" font-size="12" font-family="Lobster-Regular, Lobster"><tspan x="0" y="0">k</tspan></text>
    <text id="S" transform="translate(91.124 114.952) rotate(45)" fill="#2f4f4f" font-size="12" font-family="Lobster-Regular, Lobster"><tspan x="0" y="0">S</tspan></text>
    <text id="h-2" data-name="h" transform="translate(95.846 118.606) rotate(60)" fill="#2f4f4f" font-size="12" font-family="Lobster-Regular, Lobster"><tspan x="0" y="0">h</tspan></text>
    <text id="o" transform="matrix(0.259, 0.966, -0.966, 0.259, 98.808, 122.703)" fill="#2f4f4f" font-size="12" font-family="Lobster-Regular, Lobster"><tspan x="0" y="0">o</tspan></text>
    <text id="w" transform="translate(100.5 126.5) rotate(90)" fill="#2f4f4f" font-size="12" font-family="Lobster-Regular, Lobster"><tspan x="0" y="0">w</tspan></text>
  </g>
</svg>
